<svg width="61" height="60" viewBox="0 0 61 60" fill="none" xmlns="http://www.w3.org/2000/svg">
<g clip-path="url(#clip0_451_6422)">
<path d="M39.8442 39.3749C39.8442 38.3803 39.4492 37.4265 38.7459 36.7233C38.0426 36.02 37.0888 35.6249 36.0942 35.6249H24.0286L24.8442 29.1749C24.8488 29.1376 24.8488 29.0998 24.8442 29.0624C24.8442 23.8687 21.1692 22.4999 19.2192 22.4999C19.0088 22.4921 18.8019 22.5554 18.6318 22.6796C18.4618 22.8037 18.3384 22.9815 18.2817 23.1843L14.5317 36.2062C13.9018 37.4482 12.9248 38.4807 11.7192 39.178V38.4374C11.7192 38.1888 11.6205 37.9503 11.4447 37.7745C11.2688 37.5987 11.0304 37.4999 10.7817 37.4999H1.40674C1.1581 37.4999 0.919641 37.5987 0.743826 37.7745C0.56801 37.9503 0.469238 38.1888 0.469238 38.4374L0.469238 59.0624C0.469238 59.311 0.56801 59.5495 0.743826 59.7253C0.919641 59.9011 1.1581 59.9999 1.40674 59.9999H10.7817C11.0304 59.9999 11.2688 59.9011 11.4447 59.7253C11.6205 59.5495 11.7192 59.311 11.7192 59.0624V58.4343L17.0911 59.9999C17.1749 60.0142 17.2605 60.0142 17.3442 59.9999H33.2817C33.992 59.9899 34.6847 59.7784 35.2794 59.39C35.8741 59.0016 36.3463 58.4522 36.641 57.8059C36.9356 57.1596 37.0407 56.443 36.9439 55.7393C36.8471 55.0356 36.5525 54.3739 36.0942 53.8312C36.5586 53.5517 36.9569 53.1748 37.2616 52.7266C37.5664 52.2783 37.7703 51.7694 37.8594 51.2347C37.9485 50.7001 37.9207 50.1525 37.7778 49.6297C37.6349 49.1068 37.3804 48.6212 37.0317 48.2062C37.4961 47.9267 37.8944 47.5498 38.1991 47.1016C38.5039 46.6533 38.7078 46.1444 38.7969 45.6097C38.886 45.0751 38.8582 44.5275 38.7153 44.0047C38.5724 43.4818 38.3179 42.9962 37.9692 42.5812C38.5333 42.2556 39.0028 41.7887 39.3316 41.2265C39.6603 40.6643 39.837 40.0261 39.8442 39.3749ZM9.84424 58.1249H2.34424V39.3749H9.84424V58.1249ZM33.2817 58.1249H17.4755L11.7192 56.4843V41.1374C14.5317 40.4905 16.2286 37.1437 16.3036 36.9843C16.3295 36.9297 16.3514 36.8733 16.3692 36.8155L19.9036 24.4593C21.0005 24.703 22.9505 25.6124 22.9692 29.0062L22.0317 36.4499C22.0157 36.5808 22.0275 36.7135 22.0662 36.8395C22.105 36.9655 22.1699 37.0819 22.2567 37.1812C22.3456 37.2824 22.4553 37.3632 22.5782 37.4182C22.7012 37.4732 22.8345 37.5011 22.9692 37.4999H36.0942C36.5915 37.4999 37.0684 37.6975 37.4201 38.0491C37.7717 38.4007 37.9692 38.8776 37.9692 39.3749C37.9692 39.8722 37.7717 40.3491 37.4201 40.7007C37.0684 41.0524 36.5915 41.2499 36.0942 41.2499H31.4067C31.1581 41.2499 30.9196 41.3487 30.7438 41.5245C30.568 41.7003 30.4692 41.9388 30.4692 42.1874C30.4692 42.436 30.568 42.6745 30.7438 42.8503C30.9196 43.0261 31.1581 43.1249 31.4067 43.1249H35.1567C35.654 43.1249 36.1309 43.3225 36.4826 43.6741C36.8342 44.0257 37.0317 44.5026 37.0317 44.9999C37.0317 45.4972 36.8342 45.9741 36.4826 46.3257C36.1309 46.6774 35.654 46.8749 35.1567 46.8749H30.4692C30.2206 46.8749 29.9821 46.9737 29.8063 47.1495C29.6305 47.3253 29.5317 47.5638 29.5317 47.8124C29.5317 48.061 29.6305 48.2995 29.8063 48.4753C29.9821 48.6511 30.2206 48.7499 30.4692 48.7499H34.2192C34.7165 48.7499 35.1934 48.9475 35.5451 49.2991C35.8967 49.6507 36.0942 50.1276 36.0942 50.6249C36.0942 51.1222 35.8967 51.5991 35.5451 51.9507C35.1934 52.3024 34.7165 52.4999 34.2192 52.4999H29.5317C29.2831 52.4999 29.0446 52.5987 28.8688 52.7745C28.693 52.9503 28.5942 53.1888 28.5942 53.4374C28.5942 53.686 28.693 53.9245 28.8688 54.1003C29.0446 54.2761 29.2831 54.3749 29.5317 54.3749H33.2817C33.779 54.3749 34.2559 54.5724 34.6076 54.9241C34.9592 55.2757 35.1567 55.7526 35.1567 56.2499C35.1567 56.7472 34.9592 57.2241 34.6076 57.5757C34.2559 57.9274 33.779 58.1249 33.2817 58.1249Z" fill="#7CC6B6"/>
<path d="M12.6567 14.0625H13.5942V15C13.5942 15.2486 13.693 15.4871 13.8688 15.6629C14.0446 15.8387 14.2831 15.9375 14.5317 15.9375C14.7804 15.9375 15.0188 15.8387 15.1947 15.6629C15.3705 15.4871 15.4692 15.2486 15.4692 15V14.0625H16.4067C16.6554 14.0625 16.8938 13.9637 17.0697 13.7879C17.2455 13.6121 17.3442 13.3736 17.3442 13.125C17.3442 12.8764 17.2455 12.6379 17.0697 12.4621C16.8938 12.2863 16.6554 12.1875 16.4067 12.1875H15.4692V11.25C15.4692 11.0014 15.3705 10.7629 15.1947 10.5871C15.0188 10.4113 14.7804 10.3125 14.5317 10.3125C14.2831 10.3125 14.0446 10.4113 13.8688 10.5871C13.693 10.7629 13.5942 11.0014 13.5942 11.25V12.1875H12.6567C12.4081 12.1875 12.1696 12.2863 11.9938 12.4621C11.818 12.6379 11.7192 12.8764 11.7192 13.125C11.7192 13.3736 11.818 13.6121 11.9938 13.7879C12.1696 13.9637 12.4081 14.0625 12.6567 14.0625Z" fill="#F9CF3D"/>
<path d="M51.0942 46.875H50.1567V45.9375C50.1567 45.6889 50.058 45.4504 49.8822 45.2746C49.7063 45.0988 49.4679 45 49.2192 45C48.9706 45 48.7321 45.0988 48.5563 45.2746C48.3805 45.4504 48.2817 45.6889 48.2817 45.9375V46.875H47.3442C47.0956 46.875 46.8571 46.9738 46.6813 47.1496C46.5055 47.3254 46.4067 47.5639 46.4067 47.8125C46.4067 48.0611 46.5055 48.2996 46.6813 48.4754C46.8571 48.6512 47.0956 48.75 47.3442 48.75H48.2817V49.6875C48.2817 49.9361 48.3805 50.1746 48.5563 50.3504C48.7321 50.5262 48.9706 50.625 49.2192 50.625C49.4679 50.625 49.7063 50.5262 49.8822 50.3504C50.058 50.1746 50.1567 49.9361 50.1567 49.6875V48.75H51.0942C51.3429 48.75 51.5813 48.6512 51.7572 48.4754C51.933 48.2996 52.0317 48.0611 52.0317 47.8125C52.0317 47.5639 51.933 47.3254 51.7572 47.1496C51.5813 46.9738 51.3429 46.875 51.0942 46.875Z" fill="#F9CF3D"/>
<path d="M39.8442 -6.1571e-05C34.3741 -6.1571e-05 29.1281 2.17292 25.2602 6.04086C21.3922 9.9088 19.2192 15.1548 19.2192 20.6249C19.2192 20.8736 19.318 21.112 19.4938 21.2879C19.6696 21.4637 19.9081 21.5624 20.1567 21.5624C20.4054 21.5624 20.6438 21.4637 20.8197 21.2879C20.9955 21.112 21.0942 20.8736 21.0942 20.6249C21.0954 17.0697 22.1072 13.588 24.0119 10.586C25.9165 7.58397 28.6354 5.18531 31.8514 3.66976C35.0674 2.15422 38.6481 1.58424 42.1757 2.02632C45.7034 2.4684 49.0326 3.90431 51.7752 6.16659C54.5178 8.42886 56.5607 11.4243 57.6657 14.8034C58.7706 18.1826 58.8921 21.8063 58.0159 25.2519C57.1396 28.6975 55.3019 31.8229 52.7169 34.2637C50.1319 36.7046 46.9063 38.3602 43.4161 39.0374C43.1675 39.0611 42.9384 39.1825 42.7793 39.375C42.6202 39.5675 42.5441 39.8154 42.5677 40.064C42.5913 40.3126 42.7127 40.5417 42.9052 40.7008C43.0978 40.8599 43.3456 40.9361 43.5942 40.9124H43.7724C48.8546 39.9832 53.4031 37.1804 56.5179 33.0584C59.6328 28.9364 61.0872 23.7955 60.5934 18.6526C60.0996 13.5097 57.6936 8.73943 53.8514 5.28541C50.0091 1.83139 45.0105 -0.0548067 39.8442 -6.1571e-05Z" fill="#E6517A"/>
<path d="M48.2817 24.375C48.2817 22.3859 47.4916 20.4782 46.085 19.0717C44.6785 17.6652 42.7709 16.875 40.7817 16.875H38.9067C38.4095 16.875 37.9325 16.6775 37.5809 16.3258C37.2293 15.9742 37.0317 15.4973 37.0317 15C37.0317 14.5027 37.2293 14.0258 37.5809 13.6742C37.9325 13.3225 38.4095 13.125 38.9067 13.125H45.4692C46.2152 13.125 46.9305 12.8287 47.458 12.3012C47.9854 11.7738 48.2817 11.0584 48.2817 10.3125C48.2817 9.56658 47.9854 8.85121 47.458 8.32376C46.9305 7.79632 46.2152 7.5 45.4692 7.5H42.6567V4.6875C42.6567 4.43886 42.558 4.2004 42.3822 4.02459C42.2063 3.84877 41.9679 3.75 41.7192 3.75H37.9692C37.7206 3.75 37.4821 3.84877 37.3063 4.02459C37.1305 4.2004 37.0317 4.43886 37.0317 4.6875V7.74375C35.2692 8.20438 33.7346 9.29075 32.7145 10.8C31.6943 12.3093 31.2583 14.1382 31.488 15.9454C31.7176 17.7526 32.5971 19.4144 33.9623 20.6206C35.3275 21.8267 37.085 22.4948 38.9067 22.5H40.7817C41.279 22.5 41.7559 22.6975 42.1076 23.0492C42.4592 23.4008 42.6567 23.8777 42.6567 24.375C42.6567 24.8723 42.4592 25.3492 42.1076 25.7008C41.7559 26.0525 41.279 26.25 40.7817 26.25H34.2192C33.4733 26.25 32.7579 26.5463 32.2305 27.0738C31.7031 27.6012 31.4067 28.3166 31.4067 29.0625C31.4067 29.8084 31.7031 30.5238 32.2305 31.0512C32.7579 31.5787 33.4733 31.875 34.2192 31.875H37.0317V34.6875C37.0317 34.9361 37.1305 35.1746 37.3063 35.3504C37.4821 35.5262 37.7206 35.625 37.9692 35.625H41.7192C41.9679 35.625 42.2063 35.5262 42.3822 35.3504C42.558 35.1746 42.6567 34.9361 42.6567 34.6875V31.6313C44.2657 31.2158 45.6912 30.2778 46.7093 28.9644C47.7274 27.6511 48.2805 26.0368 48.2817 24.375ZM41.588 29.9344C41.3627 29.9662 41.1567 30.0789 41.0084 30.2514C40.8601 30.4238 40.7795 30.6444 40.7817 30.8719V33.75H38.9067V30.9375C38.9067 30.6889 38.808 30.4504 38.6322 30.2746C38.4563 30.0988 38.2179 30 37.9692 30H34.2192C33.9706 30 33.7321 29.9012 33.5563 29.7254C33.3805 29.5496 33.2817 29.3111 33.2817 29.0625C33.2817 28.8139 33.3805 28.5754 33.5563 28.3996C33.7321 28.2238 33.9706 28.125 34.2192 28.125H40.7817C41.7763 28.125 42.7301 27.7299 43.4334 27.0266C44.1366 26.3234 44.5317 25.3696 44.5317 24.375C44.5317 23.3804 44.1366 22.4266 43.4334 21.7234C42.7301 21.0201 41.7763 20.625 40.7817 20.625H38.9067C37.4934 20.6127 36.1366 20.0687 35.1061 19.1014C34.0756 18.1341 33.447 16.8144 33.3454 15.4047C33.2438 13.995 33.6765 12.5987 34.5576 11.4936C35.4387 10.3885 36.7036 9.65554 38.1005 9.44062C38.3257 9.40879 38.5317 9.29612 38.6801 9.12364C38.8284 8.95115 38.909 8.73061 38.9067 8.50312V5.625H40.7817V8.4375C40.7817 8.68614 40.8805 8.9246 41.0563 9.10041C41.2321 9.27623 41.4706 9.375 41.7192 9.375H45.4692C45.7179 9.375 45.9563 9.47377 46.1322 9.64959C46.308 9.8254 46.4067 10.0639 46.4067 10.3125C46.4067 10.5611 46.308 10.7996 46.1322 10.9754C45.9563 11.1512 45.7179 11.25 45.4692 11.25H38.9067C37.9122 11.25 36.9584 11.6451 36.2551 12.3483C35.5518 13.0516 35.1567 14.0054 35.1567 15C35.1567 15.9946 35.5518 16.9484 36.2551 17.6516C36.9584 18.3549 37.9122 18.75 38.9067 18.75H40.7817C42.195 18.7623 43.5519 19.3063 44.5824 20.2736C45.6129 21.2409 46.2415 22.5606 46.3431 23.9703C46.4447 25.38 46.0119 26.7763 45.1308 27.8814C44.2497 28.9865 42.9849 29.7195 41.588 29.9344Z" fill="#E6517A"/>
</g>
<defs>
<clipPath id="clip0_451_6422">
<rect width="60" height="60" fill="white" transform="translate(0.469238)"/>
</clipPath>
</defs>
</svg>
