<svg width="61" height="60" viewBox="0 0 61 60" fill="none" xmlns="http://www.w3.org/2000/svg">
<g clip-path="url(#clip0_451_6433)">
<path d="M39.7147 39.3749C39.7147 38.3803 39.3196 37.4265 38.6164 36.7233C37.9131 36.02 36.9593 35.6249 35.9647 35.6249H23.8991L24.7147 29.1749C24.7193 29.1376 24.7193 29.0998 24.7147 29.0624C24.7147 23.8687 21.0397 22.4999 19.0897 22.4999C18.8793 22.4921 18.6724 22.5554 18.5023 22.6796C18.3323 22.8037 18.2089 22.9815 18.1522 23.1843L14.4022 36.2062C13.7723 37.4482 12.7952 38.4807 11.5897 39.178V38.4374C11.5897 38.1888 11.4909 37.9503 11.3151 37.7745C11.1393 37.5987 10.9009 37.4999 10.6522 37.4999H1.27722C1.02858 37.4999 0.790124 37.5987 0.614309 37.7745C0.438494 37.9503 0.339722 38.1888 0.339722 38.4374L0.339722 59.0624C0.339722 59.311 0.438494 59.5495 0.614309 59.7253C0.790124 59.9011 1.02858 59.9999 1.27722 59.9999H10.6522C10.9009 59.9999 11.1393 59.9011 11.3151 59.7253C11.4909 59.5495 11.5897 59.311 11.5897 59.0624V58.4343L16.9616 59.9999C17.0454 60.0142 17.131 60.0142 17.2147 59.9999H33.1522C33.8624 59.9899 34.5552 59.7784 35.1499 59.39C35.7446 59.0016 36.2168 58.4522 36.5114 57.8059C36.8061 57.1596 36.9112 56.443 36.8144 55.7393C36.7176 55.0356 36.4229 54.3739 35.9647 53.8312C36.4291 53.5517 36.8274 53.1748 37.1321 52.7266C37.4368 52.2783 37.6408 51.7694 37.7299 51.2347C37.819 50.7001 37.7911 50.1525 37.6483 49.6297C37.5054 49.1068 37.2509 48.6212 36.9022 48.2062C37.3666 47.9267 37.7649 47.5498 38.0696 47.1016C38.3743 46.6533 38.5783 46.1444 38.6674 45.6097C38.7565 45.0751 38.7286 44.5275 38.5858 44.0047C38.4429 43.4818 38.1884 42.9962 37.8397 42.5812C38.4038 42.2556 38.8733 41.7887 39.2021 41.2265C39.5308 40.6643 39.7075 40.0261 39.7147 39.3749ZM9.71472 58.1249H2.21472V39.3749H9.71472V58.1249ZM33.1522 58.1249H17.346L11.5897 56.4843V41.1374C14.4022 40.4905 16.0991 37.1437 16.1741 36.9843C16.2 36.9297 16.2219 36.8733 16.2397 36.8155L19.7741 24.4593C20.871 24.703 22.821 25.6124 22.8397 29.0062L21.9022 36.4499C21.8862 36.5808 21.898 36.7135 21.9367 36.8395C21.9755 36.9655 22.0404 37.0819 22.1272 37.1812C22.2161 37.2824 22.3258 37.3632 22.4487 37.4182C22.5717 37.4732 22.705 37.5011 22.8397 37.4999H35.9647C36.462 37.4999 36.9389 37.6975 37.2906 38.0491C37.6422 38.4007 37.8397 38.8776 37.8397 39.3749C37.8397 39.8722 37.6422 40.3491 37.2906 40.7007C36.9389 41.0524 36.462 41.2499 35.9647 41.2499H31.2772C31.0286 41.2499 30.7901 41.3487 30.6143 41.5245C30.4385 41.7003 30.3397 41.9388 30.3397 42.1874C30.3397 42.436 30.4385 42.6745 30.6143 42.8503C30.7901 43.0261 31.0286 43.1249 31.2772 43.1249H35.0272C35.5245 43.1249 36.0014 43.3225 36.3531 43.6741C36.7047 44.0257 36.9022 44.5026 36.9022 44.9999C36.9022 45.4972 36.7047 45.9741 36.3531 46.3257C36.0014 46.6774 35.5245 46.8749 35.0272 46.8749H30.3397C30.0911 46.8749 29.8526 46.9737 29.6768 47.1495C29.501 47.3253 29.4022 47.5638 29.4022 47.8124C29.4022 48.061 29.501 48.2995 29.6768 48.4753C29.8526 48.6511 30.0911 48.7499 30.3397 48.7499H34.0897C34.587 48.7499 35.0639 48.9475 35.4156 49.2991C35.7672 49.6507 35.9647 50.1276 35.9647 50.6249C35.9647 51.1222 35.7672 51.5991 35.4156 51.9507C35.0639 52.3024 34.587 52.4999 34.0897 52.4999H29.4022C29.1536 52.4999 28.9151 52.5987 28.7393 52.7745C28.5635 52.9503 28.4647 53.1888 28.4647 53.4374C28.4647 53.686 28.5635 53.9245 28.7393 54.1003C28.9151 54.2761 29.1536 54.3749 29.4022 54.3749H33.1522C33.6495 54.3749 34.1264 54.5724 34.4781 54.9241C34.8297 55.2757 35.0272 55.7526 35.0272 56.2499C35.0272 56.7472 34.8297 57.2241 34.4781 57.5757C34.1264 57.9274 33.6495 58.1249 33.1522 58.1249Z" fill="#7CC6B6"/>
<path d="M12.5272 14.0625H13.4647V15C13.4647 15.2486 13.5635 15.4871 13.7393 15.6629C13.9151 15.8387 14.1536 15.9375 14.4022 15.9375C14.6509 15.9375 14.8893 15.8387 15.0651 15.6629C15.2409 15.4871 15.3397 15.2486 15.3397 15V14.0625H16.2772C16.5259 14.0625 16.7643 13.9637 16.9401 13.7879C17.116 13.6121 17.2147 13.3736 17.2147 13.125C17.2147 12.8764 17.116 12.6379 16.9401 12.4621C16.7643 12.2863 16.5259 12.1875 16.2772 12.1875H15.3397V11.25C15.3397 11.0014 15.2409 10.7629 15.0651 10.5871C14.8893 10.4113 14.6509 10.3125 14.4022 10.3125C14.1536 10.3125 13.9151 10.4113 13.7393 10.5871C13.5635 10.7629 13.4647 11.0014 13.4647 11.25V12.1875H12.5272C12.2786 12.1875 12.0401 12.2863 11.8643 12.4621C11.6885 12.6379 11.5897 12.8764 11.5897 13.125C11.5897 13.3736 11.6885 13.6121 11.8643 13.7879C12.0401 13.9637 12.2786 14.0625 12.5272 14.0625Z" fill="#F9CF3D"/>
<path d="M50.9647 46.875H50.0272V45.9375C50.0272 45.6889 49.9285 45.4504 49.7526 45.2746C49.5768 45.0988 49.3384 45 49.0897 45C48.8411 45 48.6026 45.0988 48.4268 45.2746C48.251 45.4504 48.1522 45.6889 48.1522 45.9375V46.875H47.2147C46.9661 46.875 46.7276 46.9738 46.5518 47.1496C46.376 47.3254 46.2772 47.5639 46.2772 47.8125C46.2772 48.0611 46.376 48.2996 46.5518 48.4754C46.7276 48.6512 46.9661 48.75 47.2147 48.75H48.1522V49.6875C48.1522 49.9361 48.251 50.1746 48.4268 50.3504C48.6026 50.5262 48.8411 50.625 49.0897 50.625C49.3384 50.625 49.5768 50.5262 49.7526 50.3504C49.9285 50.1746 50.0272 49.9361 50.0272 49.6875V48.75H50.9647C51.2134 48.75 51.4518 48.6512 51.6276 48.4754C51.8035 48.2996 51.9022 48.0611 51.9022 47.8125C51.9022 47.5639 51.8035 47.3254 51.6276 47.1496C51.4518 46.9738 51.2134 46.875 50.9647 46.875Z" fill="#F9CF3D"/>
<path fill-rule="evenodd" clip-rule="evenodd" d="M27.3397 10.3333C27.3397 9.78097 27.6475 9.33325 28.0272 9.33325H58.6522C59.0319 9.33325 59.3397 9.78097 59.3397 10.3333C59.3397 10.8855 59.0319 11.3333 58.6522 11.3333H28.0272C27.6475 11.3333 27.3397 10.8855 27.3397 10.3333Z" fill="#E6517A"/>
<path fill-rule="evenodd" clip-rule="evenodd" d="M27.3397 4.5965C27.3397 3.16247 28.5009 2 29.9333 2H56.7461C58.1785 2 59.3397 3.16247 59.3397 4.5965V29.4034C59.3397 30.8375 58.1785 31.9999 56.7461 31.9999L29.9333 32C28.5009 32 27.3397 30.8375 27.3397 29.4035V4.5965ZM29.9333 3.37652C29.2603 3.37652 28.7147 3.9227 28.7147 4.5965V29.4035C28.7147 30.0773 29.2603 30.6235 29.9333 30.6235L56.7461 30.6234C57.4192 30.6234 57.9647 30.0772 57.9647 29.4034V4.5965C57.9647 3.9227 57.4192 3.37652 56.7461 3.37652H29.9333Z" fill="#E6517A"/>
<path fill-rule="evenodd" clip-rule="evenodd" d="M42.673 6.66667C42.673 6.29848 42.9744 6 43.3461 6H54.6667C55.0384 6 55.3397 6.29848 55.3397 6.66667C55.3397 7.03486 55.0384 7.33333 54.6667 7.33333H43.3461C42.9744 7.33333 42.673 7.03486 42.673 6.66667Z" fill="#E6517A"/>
<path fill-rule="evenodd" clip-rule="evenodd" d="M45.6584 16.0745C45.9679 16.2501 46.0946 16.6797 45.9413 17.0343L42.5257 24.9347C42.3725 25.2892 41.9973 25.4343 41.6878 25.2588C41.3782 25.0833 41.2515 24.6536 41.4048 24.2991L44.8204 16.3986C44.9737 16.0441 45.3488 15.899 45.6584 16.0745Z" fill="#E6517A"/>
<path fill-rule="evenodd" clip-rule="evenodd" d="M38.4393 16.2097C38.751 16.4893 38.751 16.9427 38.4393 17.2223L34.6 20.6667L38.4393 24.111C38.751 24.3906 38.751 24.844 38.4393 25.1236C38.1275 25.4032 37.6222 25.4032 37.3105 25.1236L32.9068 21.173C32.5951 20.8933 32.5951 20.44 32.9068 20.1604L37.3105 16.2097C37.6222 15.9301 38.1275 15.9301 38.4393 16.2097Z" fill="#E6517A"/>
<path fill-rule="evenodd" clip-rule="evenodd" d="M48.2402 16.2097C48.5519 15.9301 49.0572 15.9301 49.3689 16.2097L53.7726 20.1604C53.9223 20.2946 54.0064 20.4768 54.0064 20.6667C54.0064 20.8566 53.9223 21.0387 53.7726 21.173L49.3689 25.1236C49.0572 25.4032 48.5519 25.4032 48.2402 25.1236C47.9285 24.844 47.9285 24.3906 48.2402 24.111L52.0795 20.6667L48.2402 17.2223C47.9285 16.9427 47.9285 16.4894 48.2402 16.2097Z" fill="#E6517A"/>
<circle cx="31.0047" cy="6.665" r="0.665" fill="#E6517A"/>
<circle cx="33.0047" cy="6.665" r="0.665" fill="#E6517A"/>
<circle cx="35.0047" cy="6.665" r="0.665" fill="#E6517A"/>
</g>
<defs>
<clipPath id="clip0_451_6433">
<rect width="60" height="60" fill="white" transform="translate(0.339722)"/>
</clipPath>
</defs>
</svg>
