<svg width="61" height="60" viewBox="0 0 61 60" fill="none" xmlns="http://www.w3.org/2000/svg">
<g clip-path="url(#clip0_451_6455)">
<path d="M40.2455 39.3752C40.2455 38.3806 39.8504 37.4268 39.1471 36.7235C38.4439 36.0202 37.49 35.6252 36.4955 35.6252H24.4299L25.2455 29.1752C25.2501 29.1378 25.2501 29.1 25.2455 29.0627C25.2455 23.8689 21.5705 22.5002 19.6205 22.5002C19.4101 22.4924 19.2032 22.5557 19.0331 22.6798C18.863 22.804 18.7397 22.9817 18.683 23.1845L14.933 36.2064C14.3031 37.4485 13.326 38.4809 12.1205 39.1783V38.4377C12.1205 38.189 12.0217 37.9506 11.8459 37.7747C11.6701 37.5989 11.4316 37.5002 11.183 37.5002H1.80798C1.55934 37.5002 1.32089 37.5989 1.14507 37.7747C0.969255 37.9506 0.870483 38.189 0.870483 38.4377L0.870483 59.0627C0.870483 59.3113 0.969255 59.5498 1.14507 59.7256C1.32089 59.9014 1.55934 60.0002 1.80798 60.0002H11.183C11.4316 60.0002 11.6701 59.9014 11.8459 59.7256C12.0217 59.5498 12.1205 59.3113 12.1205 59.0627V58.4345L17.4924 60.0002C17.5761 60.0145 17.6617 60.0145 17.7455 60.0002H33.683C34.3932 59.9901 35.086 59.7786 35.6807 59.3902C36.2754 59.0018 36.7475 58.4525 37.0422 57.8062C37.3369 57.1599 37.4419 56.4432 37.3451 55.7395C37.2483 55.0359 36.9537 54.3741 36.4955 53.8314C36.9599 53.5519 37.3581 53.175 37.6629 52.7268C37.9676 52.2786 38.1716 51.7696 38.2607 51.235C38.3498 50.7003 38.3219 50.1527 38.179 49.6299C38.0361 49.1071 37.7816 48.6214 37.433 48.2064C37.8974 47.9269 38.2956 47.55 38.6004 47.1018C38.9051 46.6536 39.1091 46.1446 39.1982 45.61C39.2873 45.0753 39.2594 44.5277 39.1165 44.0049C38.9736 43.4821 38.7191 42.9964 38.3705 42.5814C38.9345 42.2558 39.404 41.7889 39.7328 41.2267C40.0616 40.6645 40.2383 40.0264 40.2455 39.3752ZM10.2455 58.1252H2.74548V39.3752H10.2455V58.1252ZM33.683 58.1252H17.8767L12.1205 56.4845V41.1377C14.933 40.4908 16.6299 37.1439 16.7049 36.9845C16.7308 36.9299 16.7527 36.8735 16.7705 36.8158L20.3049 24.4595C21.4017 24.7033 23.3517 25.6127 23.3705 29.0064L22.433 36.4502C22.417 36.581 22.4287 36.7138 22.4675 36.8398C22.5063 36.9658 22.5712 37.0822 22.658 37.1814C22.7469 37.2826 22.8565 37.3635 22.9795 37.4185C23.1024 37.4735 23.2358 37.5013 23.3705 37.5002H36.4955C36.9928 37.5002 37.4697 37.6977 37.8213 38.0493C38.1729 38.401 38.3705 38.8779 38.3705 39.3752C38.3705 39.8724 38.1729 40.3493 37.8213 40.701C37.4697 41.0526 36.9928 41.2502 36.4955 41.2502H31.808C31.5593 41.2502 31.3209 41.3489 31.1451 41.5247C30.9693 41.7006 30.8705 41.939 30.8705 42.1877C30.8705 42.4363 30.9693 42.6747 31.1451 42.8506C31.3209 43.0264 31.5593 43.1252 31.808 43.1252H35.558C36.0553 43.1252 36.5322 43.3227 36.8838 43.6743C37.2354 44.026 37.433 44.5029 37.433 45.0002C37.433 45.4974 37.2354 45.9743 36.8838 46.326C36.5322 46.6776 36.0553 46.8752 35.558 46.8752H30.8705C30.6218 46.8752 30.3834 46.9739 30.2076 47.1497C30.0318 47.3256 29.933 47.564 29.933 47.8127C29.933 48.0613 30.0318 48.2997 30.2076 48.4756C30.3834 48.6514 30.6218 48.7502 30.8705 48.7502H34.6205C35.1178 48.7502 35.5947 48.9477 35.9463 49.2993C36.2979 49.651 36.4955 50.1279 36.4955 50.6252C36.4955 51.1224 36.2979 51.5993 35.9463 51.951C35.5947 52.3026 35.1178 52.5002 34.6205 52.5002H29.933C29.6843 52.5002 29.4459 52.5989 29.2701 52.7747C29.0943 52.9506 28.9955 53.189 28.9955 53.4377C28.9955 53.6863 29.0943 53.9247 29.2701 54.1006C29.4459 54.2764 29.6843 54.3752 29.933 54.3752H33.683C34.1803 54.3752 34.6572 54.5727 35.0088 54.9243C35.3604 55.276 35.558 55.7529 35.558 56.2502C35.558 56.7474 35.3604 57.2243 35.0088 57.576C34.6572 57.9276 34.1803 58.1252 33.683 58.1252Z" fill="#7CC6B6"/>
<path d="M60.8705 12.8344C60.8169 12.6691 60.7183 12.5219 60.5859 12.4093C60.4534 12.2968 60.2923 12.2232 60.1205 12.1969L48.3924 10.3969L43.9111 0.553199C43.8365 0.389523 43.7165 0.250753 43.5652 0.153444C43.4139 0.0561351 43.2379 0.00439453 43.058 0.00439453C42.8781 0.00439453 42.7021 0.0561351 42.5508 0.153444C42.3995 0.250753 42.2794 0.389523 42.2049 0.553199L37.7236 10.3969L26.0424 12.1876C25.8699 12.2126 25.7078 12.2853 25.5743 12.3974C25.4409 12.5094 25.3413 12.6565 25.2868 12.822C25.2322 12.9875 25.2249 13.165 25.2657 13.3345C25.3064 13.5039 25.3936 13.6587 25.5174 13.7813L33.6174 21.8719L31.808 32.6626C31.7871 32.8335 31.8137 33.0068 31.8848 33.1636C31.956 33.3204 32.0689 33.4546 32.2113 33.5514C32.3536 33.6483 32.5199 33.7041 32.6919 33.7126C32.8638 33.7212 33.0348 33.6823 33.1861 33.6001L43.058 28.2563L52.9205 33.6376C53.0587 33.7122 53.2134 33.7509 53.3705 33.7501C53.5659 33.7488 53.756 33.6865 53.9142 33.5719C54.0614 33.4689 54.1758 33.3258 54.244 33.1596C54.3121 32.9934 54.3311 32.8111 54.2986 32.6344L52.4986 21.8532L60.5986 13.7626C60.724 13.6472 60.8156 13.4998 60.8635 13.3363C60.9114 13.1727 60.9138 12.9993 60.8705 12.8344ZM50.8767 20.8969C50.7713 21.0023 50.6925 21.1312 50.6469 21.273C50.6012 21.4149 50.59 21.5655 50.6142 21.7126L52.1799 31.0876L43.5549 26.4001C43.4067 26.3043 43.2344 26.2523 43.058 26.2501C42.9009 26.2493 42.7462 26.288 42.608 26.3626L33.983 31.0501L35.5486 21.6751C35.5728 21.528 35.5616 21.3774 35.516 21.2355C35.4703 21.0937 35.3915 20.9648 35.2861 20.8594L28.1517 13.7344L38.4642 12.1407C38.619 12.1168 38.7652 12.0545 38.8897 11.9595C39.0141 11.8645 39.1128 11.7399 39.1767 11.5969L43.0111 3.15945L46.8455 11.5969C46.9094 11.7399 47.0081 11.8645 47.1326 11.9595C47.257 12.0545 47.4033 12.1168 47.558 12.1407L57.8705 13.7344L50.8767 20.8969Z" fill="#E6517A"/>
<path d="M13.058 14.0625H13.9955V15C13.9955 15.2486 14.0943 15.4871 14.2701 15.6629C14.4459 15.8387 14.6843 15.9375 14.933 15.9375C15.1816 15.9375 15.4201 15.8387 15.5959 15.6629C15.7717 15.4871 15.8705 15.2486 15.8705 15V14.0625H16.808C17.0566 14.0625 17.2951 13.9637 17.4709 13.7879C17.6467 13.6121 17.7455 13.3736 17.7455 13.125C17.7455 12.8764 17.6467 12.6379 17.4709 12.4621C17.2951 12.2863 17.0566 12.1875 16.808 12.1875H15.8705V11.25C15.8705 11.0014 15.7717 10.7629 15.5959 10.5871C15.4201 10.4113 15.1816 10.3125 14.933 10.3125C14.6843 10.3125 14.4459 10.4113 14.2701 10.5871C14.0943 10.7629 13.9955 11.0014 13.9955 11.25V12.1875H13.058C12.8093 12.1875 12.5709 12.2863 12.3951 12.4621C12.2193 12.6379 12.1205 12.8764 12.1205 13.125C12.1205 13.3736 12.2193 13.6121 12.3951 13.7879C12.5709 13.9637 12.8093 14.0625 13.058 14.0625Z" fill="#F9CF3D"/>
<path d="M51.4955 46.875H50.558V45.9375C50.558 45.6889 50.4592 45.4504 50.2834 45.2746C50.1076 45.0988 49.8691 45 49.6205 45C49.3718 45 49.1334 45.0988 48.9576 45.2746C48.7818 45.4504 48.683 45.6889 48.683 45.9375V46.875H47.7455C47.4968 46.875 47.2584 46.9738 47.0826 47.1496C46.9068 47.3254 46.808 47.5639 46.808 47.8125C46.808 48.0611 46.9068 48.2996 47.0826 48.4754C47.2584 48.6512 47.4968 48.75 47.7455 48.75H48.683V49.6875C48.683 49.9361 48.7818 50.1746 48.9576 50.3504C49.1334 50.5262 49.3718 50.625 49.6205 50.625C49.8691 50.625 50.1076 50.5262 50.2834 50.3504C50.4592 50.1746 50.558 49.9361 50.558 49.6875V48.75H51.4955C51.7441 48.75 51.9826 48.6512 52.1584 48.4754C52.3342 48.2996 52.433 48.0611 52.433 47.8125C52.433 47.5639 52.3342 47.3254 52.1584 47.1496C51.9826 46.9738 51.7441 46.875 51.4955 46.875Z" fill="#F9CF3D"/>
</g>
<defs>
<clipPath id="clip0_451_6455">
<rect width="60" height="60" fill="white" transform="translate(0.870483)"/>
</clipPath>
</defs>
</svg>
