<svg width="32" height="33" viewBox="0 0 32 33" fill="none" xmlns="http://www.w3.org/2000/svg">
<path d="M16 0.5C12.8355 0.5 9.74207 1.43838 7.11088 3.19649C4.4797 4.95459 2.42894 7.45345 1.21793 10.3771C0.00693251 13.3007 -0.309921 16.5177 0.307443 19.6214C0.924806 22.7251 2.44866 25.5761 4.6863 27.8137C6.92394 30.0513 9.77487 31.5752 12.8786 32.1926C15.9823 32.8099 19.1993 32.4931 22.1229 31.2821C25.0466 30.0711 27.5454 28.0203 29.3035 25.3891C31.0616 22.7579 32 19.6645 32 16.5C32 12.2565 30.3143 8.18687 27.3137 5.18629C24.3131 2.18571 20.2435 0.5 16 0.5ZM20.0547 14.9842L19.7895 17.2137C19.778 17.3171 19.7287 17.4127 19.6509 17.4819C19.5732 17.5511 19.4725 17.5891 19.3684 17.5884H17.0526V24.1989C17.0532 24.2779 17.0225 24.3538 16.9673 24.4102C16.9121 24.4666 16.8368 24.4989 16.7579 24.5H14.4C14.3607 24.4995 14.322 24.4912 14.2859 24.4756C14.2499 24.4601 14.2172 24.4376 14.1898 24.4095C14.1625 24.3813 14.1409 24.3481 14.1264 24.3116C14.1119 24.2751 14.1047 24.2361 14.1053 24.1968L14.1179 17.5884H12.3642C12.2525 17.5884 12.1455 17.5441 12.0665 17.4651C11.9875 17.3861 11.9432 17.279 11.9432 17.1674V14.94C11.9432 14.8283 11.9875 14.7212 12.0665 14.6423C12.1455 14.5633 12.2525 14.5189 12.3642 14.5189H14.1053V12.3589C14.1053 9.86 15.5937 8.5 17.7684 8.5H19.5516C19.6633 8.5 19.7704 8.54436 19.8493 8.62332C19.9283 8.70229 19.9726 8.80938 19.9726 8.92105V10.7968C19.9726 10.9085 19.9283 11.0156 19.8493 11.0946C19.7704 11.1735 19.6633 11.2179 19.5516 11.2179H18.459C17.2758 11.2368 17.0526 11.8032 17.0526 12.6495V14.5126H19.6463C19.7051 14.514 19.7629 14.5276 19.816 14.5526C19.8692 14.5776 19.9166 14.6135 19.955 14.6579C19.9935 14.7023 20.0222 14.7543 20.0394 14.8105C20.0566 14.8667 20.0618 14.9259 20.0547 14.9842Z" fill="#E9E9E9"/>
</svg>
