<svg width="32" height="33" viewBox="0 0 32 33" fill="none" xmlns="http://www.w3.org/2000/svg">
<g clip-path="url(#clip0_451_6527)">
<path d="M16 19.0285C17.3964 19.0285 18.5284 17.8965 18.5284 16.5001C18.5284 15.1037 17.3964 13.9717 16 13.9717C14.6036 13.9717 13.4716 15.1037 13.4716 16.5001C13.4716 17.8965 14.6036 19.0285 16 19.0285Z" fill="#E9E9E9"/>
<path d="M19.2337 10.1106H12.7663C11.9288 10.1106 11.1255 10.4433 10.5333 11.0355C9.9411 11.6277 9.6084 12.431 9.6084 13.2685V19.7338C9.6084 20.5713 9.9411 21.3745 10.5333 21.9667C11.1255 22.5589 11.9288 22.8916 12.7663 22.8916H19.2337C20.0712 22.8916 20.8744 22.5589 21.4666 21.9667C22.0589 21.3745 22.3916 20.5713 22.3916 19.7338V13.2664C22.391 12.4292 22.058 11.6265 21.4659 11.0348C20.8737 10.443 20.0708 10.1106 19.2337 10.1106ZM16 20.639C15.1813 20.6394 14.3809 20.397 13.6999 19.9425C13.019 19.488 12.4882 18.8417 12.1746 18.0854C11.861 17.3292 11.7787 16.4969 11.9382 15.6939C12.0977 14.8909 12.4917 14.1532 13.0704 13.5741C13.6492 12.9951 14.3867 12.6007 15.1896 12.4408C15.9926 12.2809 16.8249 12.3628 17.5813 12.676C18.3377 12.9892 18.9842 13.5197 19.4391 14.2004C19.894 14.8811 20.1368 15.6814 20.1368 16.5001C20.1357 17.5971 19.6996 18.6489 18.9241 19.4248C18.1486 20.2007 17.097 20.6373 16 20.639ZM20.1621 13.3843C19.9595 13.3847 19.7614 13.325 19.5929 13.2127C19.4243 13.1005 19.2928 12.9407 19.2151 12.7536C19.1374 12.5666 19.117 12.3607 19.1564 12.162C19.1958 11.9634 19.2933 11.7809 19.4365 11.6376C19.5797 11.4944 19.7622 11.3969 19.9609 11.3575C20.1596 11.3181 20.3655 11.3386 20.5525 11.4163C20.7395 11.494 20.8993 11.6254 21.0116 11.794C21.1238 11.9626 21.1836 12.1607 21.1831 12.3632C21.1826 12.6339 21.0748 12.8932 20.8835 13.0846C20.6921 13.276 20.4327 13.3837 20.1621 13.3843Z" fill="#E9E9E9"/>
<path d="M16 0.5C12.8355 0.5 9.74207 1.43838 7.11088 3.19649C4.4797 4.95459 2.42894 7.45345 1.21793 10.3771C0.00693251 13.3007 -0.309921 16.5177 0.307443 19.6214C0.924806 22.7251 2.44866 25.5761 4.6863 27.8137C6.92394 30.0513 9.77487 31.5752 12.8786 32.1926C15.9823 32.8099 19.1993 32.4931 22.1229 31.2821C25.0466 30.0711 27.5454 28.0203 29.3035 25.3891C31.0616 22.7579 32 19.6645 32 16.5C32 12.2565 30.3143 8.18687 27.3137 5.18629C24.3131 2.18571 20.2435 0.5 16 0.5ZM24 19.7337C23.9989 20.9974 23.4964 22.2091 22.6028 23.1027C21.7091 23.9964 20.4975 24.4989 19.2337 24.5H12.7663C11.5027 24.4983 10.2914 23.9956 9.39787 23.1021C8.50438 22.2086 8.00168 20.9973 8.00001 19.7337V13.2663C8.00168 12.0027 8.50438 10.7914 9.39787 9.89787C10.2914 9.00437 11.5027 8.50167 12.7663 8.5H19.2337C20.4973 8.50167 21.7086 9.00437 22.6021 9.89787C23.4956 10.7914 23.9983 12.0027 24 13.2663V19.7337Z" fill="#E9E9E9"/>
</g>
<defs>
<clipPath id="clip0_451_6527">
<rect width="32" height="32" fill="white" transform="translate(0 0.5)"/>
</clipPath>
</defs>
</svg>
